<mxGraphModel><root><mxCell id="0"/><mxCell id="1" parent="0"/><mxCell id="2" value="Start" style="whiteSpace=wrap;strokeWidth=2;" vertex="1" parent="1"><mxGeometry x="364" y="8" width="95" height="54" as="geometry"/></mxCell><mxCell id="3" value="Greeting User" style="whiteSpace=wrap;strokeWidth=2;" vertex="1" parent="1"><mxGeometry x="332" y="112" width="159" height="54" as="geometry"/></mxCell><mxCell id="4" value="User's Mood" style="rhombus;strokeWidth=2;whiteSpace=wrap;" vertex="1" parent="1"><mxGeometry x="343" y="216" width="137" height="137" as="geometry"/></mxCell><mxCell id="5" value="Respond with Positive Comment" style="whiteSpace=wrap;strokeWidth=2;" vertex="1" parent="1"><mxGeometry x="563" y="426" width="260" height="78" as="geometry"/></mxCell><mxCell id="6" value="Ask About Their Day" style="whiteSpace=wrap;strokeWidth=2;" vertex="1" parent="1"><mxGeometry x="310" y="438" width="203" height="54" as="geometry"/></mxCell><mxCell id="7" value="Offer Supportive Comment" style="whiteSpace=wrap;strokeWidth=2;" vertex="1" parent="1"><mxGeometry x="8" y="438" width="252" height="54" as="geometry"/></mxCell><mxCell id="8" value="Ask Follow-up Question" style="whiteSpace=wrap;strokeWidth=2;" vertex="1" parent="1"><mxGeometry x="298" y="554" width="227" height="54" as="geometry"/></mxCell><mxCell id="9" value="Continue or Exit" style="rhombus;strokeWidth=2;whiteSpace=wrap;" vertex="1" parent="1"><mxGeometry x="416" y="658" width="170" height="170" as="geometry"/></mxCell><mxCell id="10" value="Ask Another Question" style="whiteSpace=wrap;strokeWidth=2;" vertex="1" parent="1"><mxGeometry x="181" y="901" width="213" height="54" as="geometry"/></mxCell><mxCell id="11" value="Goodbye Message" style="whiteSpace=wrap;strokeWidth=2;" vertex="1" parent="1"><mxGeometry x="444" y="901" width="185" height="54" as="geometry"/></mxCell><mxCell id="12" value="" style="curved=1;startArrow=none;endArrow=block;exitX=0.5;exitY=1;entryX=0.5;entryY=0;" edge="1" parent="1" source="2" target="3"><mxGeometry relative="1" as="geometry"><Array as="points"/></mxGeometry></mxCell><mxCell id="13" value="" style="curved=1;startArrow=none;endArrow=block;exitX=0.5;exitY=1;entryX=0.5;entryY=0;" edge="1" parent="1" source="3" target="4"><mxGeometry relative="1" as="geometry"><Array as="points"/></mxGeometry></mxCell><mxCell id="14" value="Happy" style="curved=1;startArrow=none;endArrow=block;exitX=1;exitY=0.69;entryX=0.5;entryY=0;" edge="1" parent="1" source="4" target="5"><mxGeometry relative="1" as="geometry"><Array as="points"><mxPoint x="693" y="390"/></Array></mxGeometry></mxCell><mxCell id="15" value="Neutral" style="curved=1;startArrow=none;endArrow=block;exitX=0.5;exitY=1;entryX=0.5;entryY=0;" edge="1" parent="1" source="4" target="6"><mxGeometry relative="1" as="geometry"><Array as="points"/></mxGeometry></mxCell><mxCell id="16" value="Sad" style="curved=1;startArrow=none;endArrow=block;exitX=0;exitY=0.69;entryX=0.5;entryY=0;" edge="1" parent="1" source="4" target="7"><mxGeometry relative="1" as="geometry"><Array as="points"><mxPoint x="134" y="390"/></Array></mxGeometry></mxCell><mxCell id="17" value="" style="curved=1;startArrow=none;endArrow=block;exitX=0.5;exitY=1;entryX=1;entryY=0.11;" edge="1" parent="1" source="5" target="8"><mxGeometry relative="1" as="geometry"><Array as="points"><mxPoint x="693" y="529"/></Array></mxGeometry></mxCell><mxCell id="18" value="" style="curved=1;startArrow=none;endArrow=block;exitX=0.5;exitY=1;entryX=0.5;entryY=0;" edge="1" parent="1" source="6" target="8"><mxGeometry relative="1" as="geometry"><Array as="points"/></mxGeometry></mxCell><mxCell id="19" value="" style="curved=1;startArrow=none;endArrow=block;exitX=0.5;exitY=1;entryX=0;entryY=0.11;" edge="1" parent="1" source="7" target="8"><mxGeometry relative="1" as="geometry"><Array as="points"><mxPoint x="134" y="529"/></Array></mxGeometry></mxCell><mxCell id="20" value="" style="curved=1;startArrow=none;endArrow=block;exitX=0.71;exitY=1;entryX=0.5;entryY=0;" edge="1" parent="1" source="8" target="9"><mxGeometry relative="1" as="geometry"><Array as="points"><mxPoint x="501" y="633"/></Array></mxGeometry></mxCell><mxCell id="21" value="Continue" style="curved=1;startArrow=none;endArrow=block;exitX=0;exitY=1;entryX=0.68;entryY=0;" edge="1" parent="1" source="9" target="10"><mxGeometry relative="1" as="geometry"><Array as="points"><mxPoint x="379" y="865"/></Array></mxGeometry></mxCell><mxCell id="22" value="Exit" style="curved=1;startArrow=none;endArrow=block;exitX=0.65;exitY=1;entryX=0.5;entryY=0;" edge="1" parent="1" source="9" target="11"><mxGeometry relative="1" as="geometry"><Array as="points"><mxPoint x="536" y="865"/></Array></mxGeometry></mxCell><mxCell id="23" value="" style="curved=1;startArrow=none;endArrow=block;exitX=0.45;exitY=0;entryX=0.16;entryY=1;" edge="1" parent="1" source="10" target="8"><mxGeometry relative="1" as="geometry"><Array as="points"><mxPoint x="262" y="865"/><mxPoint x="262" y="633"/></Array></mxGeometry></mxCell></root></mxGraphModel>